<svg width="36" height="36" viewBox="0 0 36 36" fill="none" xmlns="http://www.w3.org/2000/svg">
<path d="M3.57236 25.9204C4.53998 29.8007 5.0238 31.7408 6.46685 32.8704C7.90991 34 9.9047 34 13.8943 34H22.1057C26.0953 34 28.0901 34 29.5332 32.8704C30.9762 31.7408 31.46 29.8007 32.4277 25.9204C33.949 19.8194 34.7097 16.7689 33.1123 14.7179C31.515 12.6667 28.3786 12.6667 22.1057 12.6667H13.8943C7.62153 12.6667 4.48515 12.6667 2.88772 14.7179C1.95004 15.9218 1.8249 17.4702 2.18918 19.7778" stroke="white" stroke-width="4" stroke-linecap="round"/>
<path d="M31.2992 13.5555L30.0395 8.92382C29.5538 7.13786 29.3108 6.24488 28.8127 5.57237C28.3166 4.90262 27.6424 4.38638 26.8674 4.0827C26.0892 3.77777 25.166 3.77777 23.3195 3.77777M4.7002 13.5555L5.95992 8.92382C6.44566 7.13786 6.68852 6.24488 7.18669 5.57237C7.68281 4.90262 8.35695 4.38638 9.13198 4.0827C9.91019 3.77777 10.8334 3.77777 12.6799 3.77777" stroke="white" stroke-width="4"/>
<path d="M12.6797 3.77778C12.6797 2.79595 13.4736 2 14.453 2H21.546C22.5254 2 23.3193 2.79595 23.3193 3.77778C23.3193 4.75961 22.5254 5.55556 21.546 5.55556H14.453C13.4736 5.55556 12.6797 4.75961 12.6797 3.77778Z" stroke="white" stroke-width="4"/>
</svg>
